<?xml version="1.0" encoding="UTF-8"?>
<svg width="24px" height="24px" viewBox="0 0 24 24" version="1.1" xmlns="http://www.w3.org/2000/svg">
    <g stroke="none" stroke-width="1" fill="none" fill-rule="evenodd">
        <path d="M17.05,12.04C17.02,9.71 18.92,8.58 19,8.52C17.82,6.99 16.23,6.82 15.53,6.8C13.84,6.63 12.2,7.79 11.36,7.79C10.5,7.79 9.25,6.81 7.89,6.84C6.01,6.87 4.25,7.89 3.29,9.55C1.37,12.6 2.71,17.14 4.55,19.85C5.53,21.2 6.68,22.71 8.19,22.65C9.64,22.59 10.08,21.74 11.83,21.74C13.57,21.74 13.96,22.65 15.47,22.63C17.02,22.59 18.01,21.28 18.97,19.91C20.09,18.27 20.62,16.62 20.63,16.57C20.6,16.55 17.09,15.15 17.05,12.04ZM14.94,5.5C15.73,4.58 16.29,3.31 16.15,2C15.05,2.04 13.73,2.77 12.91,3.67C12.2,4.45 11.54,5.76 11.7,7.01C12.91,7.09 14.15,6.42 14.94,5.5Z" fill="#FFFFFF"/>
    </g>
</svg> 